Coordinates
version=1
nRows=29
nColumns=24
inDegrees=yes

Units are S.I. units (second, meters, Newtons, ...)
Angles are in degrees.

endheader
time	pelvis_tilt	pelvis_list	pelvis_rotation	pelvis_tx	pelvis_ty	pelvis_tz	hip_flexion_r	hip_adduction_r	hip_rotation_r	knee_angle_r	ankle_angle_r	subtalar_angle_r	mtp_angle_r	hip_flexion_l	hip_adduction_l	hip_rotation_l	knee_angle_l	ankle_angle_l	subtalar_angle_l	mtp_angle_l	lumbar_extension	lumbar_bending	lumbar_rotation
      0.95750000	      0.93914328	     -5.78796653	     -0.47253895	     -0.10104206	      0.99304649	      0.31219842	    -14.83022093	     10.68739358	      1.88118731	     -6.40726727	      8.77704264	    -11.18513826	     -3.14528070	     21.93983238	     -3.89173733	     -0.95280457	     -4.61742775	     -2.70763715	     -5.43188870	      2.37405727	     -6.32931920	      9.35500014	      6.80139511
      0.96166667	      0.85539133	     -5.75774704	     -0.48233550	     -0.09518061	      0.99244335	      0.31187463	    -14.77019711	     10.62570839	      1.88661061	     -7.03869879	      8.91210127	    -11.12151608	     -3.13000289	     21.89686390	     -3.77432779	     -0.83886729	     -4.57125419	     -2.93338765	     -5.46734015	      2.46858096	     -6.21533577	      9.32780674	      6.82688781
      0.96583333	      0.79921898	     -5.73692133	     -0.49149473	     -0.08926444	      0.99195094	      0.31156974	    -14.71925763	     10.57425036	      1.87413392	     -7.70498257	      8.93708965	    -11.10326949	     -3.11375841	     21.81502969	     -3.67247664	     -0.73167775	     -4.58229360	     -3.17282159	     -5.51453523	      2.54793792	     -6.09187613	      9.29767078	      6.83566616
      0.97000000	      0.76006845	     -5.66025117	     -0.49993696	     -0.08331908	      0.99152691	      0.31119750	    -14.62940547	     10.44529476	      1.74257279	     -8.47562702	      9.04748900	    -10.67005893	     -2.85598599	     21.67777358	     -3.50389236	     -0.52553319	     -4.59142302	     -3.49568162	     -5.78133732	      3.48599109	     -6.02015324	      9.22948687	      6.81327417
      0.97416667	      0.64728100	     -5.62739827	     -0.49005126	     -0.07736271	      0.99106466	      0.31087716	    -14.46905457	     10.39396402	      1.77137501	     -9.22413593	      9.00573764	    -10.82571851	     -2.82146447	     21.67016900	     -3.38662670	     -0.35422386	     -4.74878122	     -3.80504459	     -5.87678155	      3.57662143	     -5.83329362	      9.18131307	      6.83432430
      0.97833333	      0.51749657	     -5.59883455	     -0.50482245	     -0.07139923	      0.99064084	      0.31055015	    -14.23810395	     10.33603417	      1.78853692	    -10.07285855	      8.97546167	    -10.83675319	     -2.74187509	     21.64482848	     -3.27643078	     -0.10193226	     -4.89316589	     -4.13112463	     -6.14960227	      3.74547352	     -5.63382334	      9.16794049	      6.82633410
      0.98250000	      0.45927859	     -5.51481302	     -0.48817840	     -0.06537313	      0.99036655	      0.31021125	    -14.06649575	     10.22323513	      1.74100737	    -10.94329930	      8.89538630	    -10.84542109	     -2.66588942	     21.55472126	     -3.10868531	      0.07703380	     -5.10651888	     -4.52214339	     -6.34916828	      3.88137326	     -5.51184734	      9.05128211	      6.80302880
      0.98666667	      0.35339945	     -5.46769739	     -0.49342903	     -0.05936773	      0.99007668	      0.30984336	    -13.78285936	     10.13789537	      1.68084826	    -11.92416585	      8.78522320	    -10.71980419	     -2.51206315	     21.49132546	     -2.97833133	      0.36606991	     -5.31018616	     -4.90712175	     -6.73306674	      4.11518970	     -5.33471714	      9.01963910	      6.76328136
      0.99083333	      0.27704193	     -5.39092616	     -0.48057980	     -0.05332952	      0.98986782	      0.30946968	    -13.50265528	     10.02309383	      1.58573447	    -12.94795721	      8.62773904	    -10.60970871	     -2.29854477	     21.40903146	     -2.81865704	      0.60798919	     -5.56851603	     -5.32886941	     -7.08279453	      4.39333048	     -5.19087656	      8.93604756	      6.70965162
      0.99500000	      0.19655860	     -5.31176798	     -0.46624014	     -0.04727045	      0.98970430	      0.30909919	    -13.17871002	      9.90458211	      1.47834210	    -14.03631418	      8.41060299	    -10.50891705	     -2.02902792	     21.33133782	     -2.66081178	      0.83782301	     -5.85406859	     -5.75186375	     -7.42527565	      4.69213624	     -5.03357053	      8.83859224	      6.65294799
      0.99916667	      0.14960279	     -5.18955745	     -0.43634479	     -0.04115228	      0.98963440	      0.30873467	    -12.87869898	      9.74625359	      1.37829401	    -15.13419083	      8.09084393	    -10.53370877	     -1.89353657	     21.23417239	     -2.46462320	      0.97405851	     -6.20001347	     -6.15058068	     -7.60338629	      4.82331204	     -4.91874007	      8.66984417	      6.60420697
      1.00333333	      0.07410847	     -5.10161648	     -0.41670352	     -0.03509144	      0.98953307	      0.30828451	    -12.44909088	      9.58799436	      1.12215152	    -16.39292845	      7.70845664	    -10.19875773	      2.90971678	     21.15542676	     -2.29782978	      1.19564742	     -6.52306574	     -6.60320334	     -8.03923675	      8.62874680	     -4.76435353	      8.58439054	      6.54574957
      1.00750000	     -0.00850392	     -4.99964594	     -0.40539176	     -0.02900498	      0.98950472	      0.30789968	    -12.00822383	      9.43891066	      1.02494655	    -17.65897260	      7.29264465	    -10.20455428	      2.99725128	     21.06775866	     -2.12560180	      1.41391404	     -6.83695520	     -7.04729145	     -8.44139678	      8.59395261	     -4.59551122	      8.46776483	      6.43792186
      1.01166667	     -0.07495292	     -4.88567758	     -0.37309283	     -0.02294265	      0.98950233	      0.30745173	    -11.52435017	      9.26101155	      0.82501005	    -19.01582482	      6.84068883	     -9.98760726	      3.18018233	     20.99302572	     -1.93403487	      1.61147746	     -7.21963901	     -7.43701790	     -8.85323088	      8.56772101	     -4.45794463	      8.33404613	      6.33442981
      1.01583333	     -0.15022902	     -4.74651685	     -0.35378436	     -0.01685132	      0.98954081	      0.30701119	    -10.98860603	      9.04704641	      0.62315032	    -20.43467416	      6.27864175	     -9.80262109	      3.36959688	     20.90345057	     -1.72627052	      1.78975799	     -7.56822684	     -7.78437427	     -9.15276024	      8.55696924	     -4.29540709	      8.17968074	      6.24055737
      1.02000000	     -0.20734948	     -4.61411573	     -0.31716468	     -0.01082546	      0.98960027	      0.30652659	    -10.41667694	      8.82831512	      0.36993062	    -21.93201329	      5.69413087	     -9.48657049	      3.71693815	     20.83521650	     -1.51838632	      1.94707529	     -7.99832965	     -8.10243172	     -9.57142562	      8.54892270	     -4.17509684	      8.01744714	      6.11644739
      1.02416667	     -0.23566566	     -4.43526614	     -0.29242946	     -0.00475812	      0.98974731	      0.30604213	     -9.83987057	      8.54017670	      0.08714218	    -23.46096914	      4.87454302	     -9.31540979	      9.98709497	     20.69927654	     -1.27136198	      2.08365684	     -8.37282600	     -8.35941379	     -9.88207727	      8.50771755	     -4.07321176	      7.80700511	      6.02020779
      1.02833333	     -0.30864230	     -4.28149144	     -0.26131699	      0.00124592	      0.98984178	      0.30555451	     -9.16865492	      8.28426258	     -0.15595776	    -25.06399687	      4.08912518	     -9.06973966	     10.04844850	     20.65004977	     -1.05059281	      2.19547567	     -8.82198544	     -8.54216599	    -10.15434744	      8.50638498	     -3.92596882	      7.63202170	      5.88721607
      1.03250000	     -0.35113113	     -4.09398318	     -0.23523741	      0.00725820	      0.99001052	      0.30507058	     -8.49215702	      7.97792072	     -0.41601978	    -26.71439298	      3.20146844	     -8.81429386	     10.14735006	     20.54124299	     -0.80027726	      2.30274918	     -9.22829089	     -8.67236871	    -10.38979675	      8.50310715	     -3.80427914	      7.41729031	      5.76855286
      1.03666667	     -0.37156446	     -3.87638185	     -0.21139543	      0.01320953	      0.99020659	      0.30455392	     -7.78999231	      7.62061629	     -0.69186469	    -28.43545111	      2.32950400	     -8.41238377	     10.42603161	     20.42242293	     -0.51411804	      2.40190478	     -9.67015034	     -8.72860909	    -10.73173418	      8.48729068	     -3.73273416	      7.16417763	      5.61000955
      1.04083333	     -0.40979610	     -3.66164396	     -0.18489122	      0.01913160	      0.99039608	      0.30404200	     -7.03703323	      7.26224238	     -0.95452967	    -30.18194635	      1.32404113	     -8.09388110	     10.79578872	     20.32596319	     -0.23426939	      2.48520434	    -10.11878675	     -8.71794653	    -10.97359633	      8.45862331	     -3.63465231	      6.91836052	      5.46919895
      1.04500000	     -0.42733462	     -3.45158424	     -0.14079687	      0.02500429	      0.99061355	      0.30352745	     -6.28331442	      6.90849255	     -1.21122418	    -31.93289655	      0.18532838	     -7.85918725	     11.05475364	     20.22633014	      0.03951945	      2.53680975	    -10.59952943	     -8.67538456	    -11.13310794	      8.43475464	     -3.57289174	      6.67684009	      5.35390160
      1.04916667	     -0.44094488	     -3.19340714	     -0.12602804	      0.03086129	      0.99084530	      0.30301226	     -5.49187162	      6.48184539	     -1.45070258	    -33.75102652	     -0.90412469	     -7.50845577	     11.53829254	     20.08397246	      0.36130884	      2.60513329	    -11.02269887	     -8.50231279	    -11.36631436	      8.37929592	     -3.50458167	      6.38339687	      5.18111930
      1.05333333	     -0.41925161	     -2.93228289	     -0.08510776	      0.03667444	      0.99113258	      0.30249288	     -4.72611255	      6.05041947	     -1.70262261	    -35.53981340	     -2.20058724	     -7.44658915	     16.93313220	     19.91273524	      0.68713463	      2.64898150	    -11.45434951	     -8.34141275	    -11.49082812	      7.58902882	     -3.49500044	      6.07926599	      5.06433687
      1.05750000	     -0.43866048	     -2.67933505	     -0.05636252	      0.04243049	      0.99136121	      0.30199836	     -3.88677285	      5.63104884	     -1.90152586	    -37.36540899	     -3.42440707	     -7.23798939	     16.94673838	     19.79262799	      0.99875876	      2.66987358	    -11.90288395	     -8.07498168	    -11.58939909	      7.59945021	     -3.43659407	      5.78915315	      4.91856507
      1.06166667	     -0.41207163	     -2.39921555	     -0.02354845	      0.04816393	      0.99166642	      0.30150823	     -3.08343082	      5.17640268	     -2.09708781	    -39.18711214	     -4.67307307	     -7.11832237	     16.95238663	     19.59676292	      1.33693209	      2.67874226	    -12.29689345	     -7.80519461	    -11.65942137	      7.60109714	     -3.43162648	      5.46919979	      4.79329866
      1.06583333	     -0.40260209	     -2.12245930	      0.01148466	      0.05382374	      0.99193129	      0.30102227	     -2.24041085	      4.72588593	     -2.26795051	    -41.01245581	     -5.90703199	     -6.96733239	     16.95634620	     19.42233859	      1.67321940	      2.69142707	    -12.69303766	     -7.49556556	    -11.75495435	      7.59424164	     -3.42107925	      5.14943904	      4.64615311
      1.07000000	     -0.37193707	     -1.82287585	      0.04061524	      0.05944505	      0.99222881	      0.30055988	     -1.41042638	      4.25557691	     -2.39671006	    -42.82751159	     -7.09785764	     -6.89869549	     16.94633826	     19.20305496	      2.03065149	      2.70628386	    -13.04705257	     -7.14138929	    -11.81384722	      7.58716758	     -3.44120748	      4.79620788	      4.50689645
      1.07416667	     -0.35323361	     -1.53779661	      0.07538765	      0.06502105	      0.99250919	      0.30010549	     -0.55617007	      3.80020195	     -2.52270714	    -44.62245632	     -8.26682586	     -6.84672234	     16.92199383	     18.98719943	      2.37181144	      2.70476353	    -13.37558078	     -6.78117851	    -11.86786499	      7.57634425	     -3.44760313	      4.46066303	      4.36188962
